<svg width="15" height="15" viewBox="0 0 15 15" fill="none" xmlns="http://www.w3.org/2000/svg">
    <path d="M7.50002 9.54173L3.24628 13.8074C2.97736 14.0747 2.63511 14.2084 2.2195 14.2084C1.8039 14.2084 1.46165 14.0747 1.19273 13.8074C0.925368 13.54 0.791687 13.1997 0.791687 12.7865C0.791687 12.3733 0.925368 12.033 1.19273 11.7657L5.45835 7.50006L1.19273 3.28285C0.925368 3.01391 0.791687 2.67164 0.791687 2.25604C0.791687 1.84042 0.925368 1.49814 1.19273 1.22923C1.46009 0.961867 1.80037 0.828186 2.21356 0.828186C2.62676 0.828186 2.96703 0.961867 3.2344 1.22923L7.50002 5.49485L11.7172 1.22923C11.9862 0.961867 12.3284 0.828186 12.744 0.828186C13.1597 0.828186 13.5019 0.961867 13.7709 1.22923C14.0625 1.52089 14.2084 1.86725 14.2084 2.26829C14.2084 2.66933 14.0625 3.00353 13.7709 3.27089L9.50523 7.50006L13.7709 11.7538C14.0382 12.0227 14.1719 12.365 14.1719 12.7806C14.1719 13.1962 14.0382 13.5384 13.7709 13.8074C13.4792 14.099 13.1328 14.2449 12.7318 14.2449C12.3307 14.2449 11.9965 14.099 11.7292 13.8074L7.50002 9.54173Z" fill="#434340"/>
</svg>
