<svg width="16" height="22" viewBox="0 0 16 22" fill="none" xmlns="http://www.w3.org/2000/svg">
    <path d="M10.5573 7.0004V5.6148C10.5567 5.20691 10.2266 4.87623 9.81869 4.87623H8.69892V3.5289H9.92737C10.3599 3.5289 10.7629 3.35809 11.0608 3.04858C11.3327 2.76777 11.5009 2.38516 11.5009 1.96293C11.5009 1.94038 11.5002 1.91715 11.4994 1.8946V1.89802L11.4599 0.830127C11.4428 0.368262 11.0643 0 10.5997 0C10.5881 0 10.5772 0 10.5655 0.000683232H10.5669C10.105 0.0184473 9.73743 0.396958 9.73743 0.861556C9.73743 0.872488 9.73743 0.884103 9.73816 0.895034V0.893668L9.77159 1.80578H8.57525C7.6932 1.80578 6.97512 2.52386 6.97512 3.40591V4.87623H5.59157C5.18368 4.87691 4.85368 5.20691 4.853 5.6148V7.0004C2.01212 8.13662 0 10.9167 0 14.1587C0 18.407 3.45579 21.8634 7.70481 21.8634C11.9538 21.8634 15.4096 18.407 15.4096 14.1587C15.4096 10.9167 13.3975 8.13661 10.5567 7.00108L10.5573 7.0004Z" fill="white"/>
</svg>
